<svg width="25" height="25" viewBox="0 0 25 25" fill="none" xmlns="http://www.w3.org/2000/svg">
<path d="M7.8106 11.416C4.60664 11.416 2 14.0227 2 17.2266C2 20.4306 4.60664 23.0372 7.8106 23.0372C11.0146 23.0372 13.6212 20.4306 13.6212 17.2266C13.6212 14.0227 11.0146 11.416 7.8106 11.416ZM10.3761 16.521L7.36323 19.5339C7.23721 19.66 7.07197 19.723 6.90673 19.723C6.7415 19.723 6.57626 19.66 6.45023 19.5339L5.15899 18.2427C4.90685 17.9906 4.90685 17.5818 5.15899 17.3296C5.41108 17.0775 5.81989 17.0775 6.07203 17.3296L6.90673 18.1644L9.46314 15.608C9.71523 15.3559 10.124 15.3559 10.3762 15.608C10.6283 15.8601 10.6283 16.2689 10.3761 16.521Z" fill="#38B258"/>
<path d="M19.0015 6.5954C18.6449 6.5954 18.3558 6.30633 18.3558 5.94977V1H9.10191C8.03392 1 7.16504 1.86888 7.16504 2.93687V10.1545C7.37775 10.1352 7.593 10.1248 7.81066 10.1248C10.0113 10.1248 11.9813 11.1309 13.2849 12.7073H20.2927C20.6493 12.7073 20.9383 12.9964 20.9383 13.3529C20.9383 13.7095 20.6493 13.9985 20.2927 13.9985H14.1355C14.548 14.8034 14.8018 15.6802 14.8829 16.581H20.2927C20.6493 16.581 20.9383 16.8701 20.9383 17.2267C20.9383 17.5832 20.6493 17.8723 20.2927 17.8723H14.8829C14.6898 20.0045 13.5505 21.8676 11.8892 23.0373H22.0144C23.0823 23.0373 23.9512 22.1684 23.9512 21.1004V6.5954H19.0015ZM20.2927 10.1248H10.8236C10.467 10.1248 10.1779 9.83573 10.1779 9.47918C10.1779 9.12262 10.467 8.83356 10.8236 8.83356H20.2927C20.6493 8.83356 20.9383 9.12262 20.9383 9.47918C20.9383 9.83573 20.6493 10.1248 20.2927 10.1248Z" fill="#38B258"/>
<path d="M19.647 1.37793V5.30405H23.5728L19.647 1.37793Z" fill="#38B258"/>
</svg>
