<svg width="21" height="20" viewBox="0 0 21 20" fill="none" xmlns="http://www.w3.org/2000/svg">
<path fill-rule="evenodd" clip-rule="evenodd" d="M2.44646 6.56181C1.99608 7.50126 2.15418 8.60001 2.47038 10.7976L2.70269 12.412C3.10886 15.2349 3.31196 16.6463 4.29118 17.4895C5.2704 18.3327 6.70646 18.3327 9.57857 18.3327H11.4221C14.2942 18.3327 15.7302 18.3327 16.7095 17.4895C17.6887 16.6463 17.8917 15.2349 18.298 12.412L18.5302 10.7976C18.8465 8.60001 19.0046 7.50126 18.5542 6.56181C18.1038 5.62235 17.1452 5.0513 15.2279 3.90919L14.0738 3.22174C12.3328 2.18459 11.4622 1.66602 10.5003 1.66602C9.53841 1.66602 8.66786 2.18459 6.92678 3.22174L5.77275 3.90919C3.85548 5.0513 2.89685 5.62235 2.44646 6.56181ZM10.5003 15.6243C10.1552 15.6243 9.87532 15.3445 9.87532 14.9993V12.4993C9.87532 12.1542 10.1552 11.8743 10.5003 11.8743C10.8455 11.8743 11.1253 12.1542 11.1253 12.4993V14.9993C11.1253 15.3445 10.8455 15.6243 10.5003 15.6243Z" fill="white"/>
</svg>
