<svg width="25" height="25" viewBox="0 0 25 25" fill="none" xmlns="http://www.w3.org/2000/svg">
<path fill-rule="evenodd" clip-rule="evenodd" d="M4.16669 4.88989V19.4732C4.16669 21.1991 5.5658 22.5982 7.29169 22.5982H17.7084C19.4343 22.5982 20.8334 21.1991 20.8334 19.4732V9.05656C20.8334 7.33066 19.4343 5.93156 17.7084 5.93156H5.20835C4.63306 5.93156 4.16669 5.46518 4.16669 4.88989ZM7.5521 12.1815C7.5521 11.7501 7.90188 11.4003 8.33335 11.4003H16.6667C17.0981 11.4003 17.4479 11.7501 17.4479 12.1815C17.4479 12.613 17.0981 12.9628 16.6667 12.9628H8.33335C7.90188 12.9628 7.5521 12.613 7.5521 12.1815ZM7.5521 15.8274C7.5521 15.3959 7.90188 15.0461 8.33335 15.0461H14.0625C14.494 15.0461 14.8438 15.3959 14.8438 15.8274C14.8438 16.2588 14.494 16.6086 14.0625 16.6086H8.33335C7.90188 16.6086 7.5521 16.2588 7.5521 15.8274Z" fill="#3353F8"/>
<path opacity="0.5" d="M18.75 4.1671V6.10946C18.4242 5.9943 18.0736 5.93164 17.7084 5.93164H5.20835C4.63306 5.93164 4.16669 5.46527 4.16669 4.88998V4.81597C4.16669 4.26074 4.57495 3.79001 5.12459 3.71149L16.3721 2.10471C17.6271 1.9254 18.75 2.89929 18.75 4.1671Z" fill="#3353F8"/>
</svg>
