<svg width="25" height="24" viewBox="0 0 25 24" fill="none" xmlns="http://www.w3.org/2000/svg">
<path d="M5.90039 0.450195H16.1279L21.0498 4.97168V21.5996C21.0498 22.6766 20.1766 23.5498 19.0996 23.5498H5.90039C4.82344 23.5498 3.9502 22.6766 3.9502 21.5996V2.40039C3.9502 1.32344 4.82344 0.450195 5.90039 0.450195Z" stroke="#D0D5DD" strokeWidth="0.9"/>
<mask id="path-2-inside-1_115_9160" fill="white">
<path d="M15.5 0.599976H20.6V5.69998H16.1C15.7686 5.69998 15.5 5.43135 15.5 5.09998V0.599976Z"/>
</mask>
<path d="M15.5 0.599976H20.6H15.5ZM20.6 6.29998H16.1C15.4373 6.29998 14.9 5.76272 14.9 5.09998H16.1H20.6V6.29998ZM16.1 6.29998C15.4373 6.29998 14.9 5.76272 14.9 5.09998V0.599976H16.1V5.09998V6.29998ZM20.6 0.599976V5.69998V0.599976Z" fill="#D0D5DD" mask="url(#path-2-inside-1_115_9160)"/>
<rect x="1.09998" y="12" width="16.4" height="7.6" rx="1.2" fill="#444CE7"/>
<path d="M4.42668 13.588C4.87068 13.588 5.25868 13.676 5.59068 13.852C5.92268 14.028 6.17868 14.276 6.35868 14.596C6.54268 14.912 6.63468 15.278 6.63468 15.694C6.63468 16.106 6.54268 16.472 6.35868 16.792C6.17868 17.112 5.92068 17.36 5.58468 17.536C5.25268 17.712 4.86668 17.8 4.42668 17.8H2.84868V13.588H4.42668ZM4.36068 16.912C4.74868 16.912 5.05068 16.806 5.26668 16.594C5.48268 16.382 5.59068 16.082 5.59068 15.694C5.59068 15.306 5.48268 15.004 5.26668 14.788C5.05068 14.572 4.74868 14.464 4.36068 14.464H3.87468V16.912H4.36068ZM9.20006 17.842C8.80406 17.842 8.44006 17.75 8.10806 17.566C7.78006 17.382 7.51806 17.126 7.32206 16.798C7.13006 16.466 7.03406 16.094 7.03406 15.682C7.03406 15.27 7.13006 14.9 7.32206 14.572C7.51806 14.244 7.78006 13.988 8.10806 13.804C8.44006 13.62 8.80406 13.528 9.20006 13.528C9.59606 13.528 9.95806 13.62 10.2861 13.804C10.6181 13.988 10.8781 14.244 11.0661 14.572C11.2581 14.9 11.3541 15.27 11.3541 15.682C11.3541 16.094 11.2581 16.466 11.0661 16.798C10.8741 17.126 10.6141 17.382 10.2861 17.566C9.95806 17.75 9.59606 17.842 9.20006 17.842ZM9.20006 16.906C9.53606 16.906 9.80406 16.794 10.0041 16.57C10.2081 16.346 10.3101 16.05 10.3101 15.682C10.3101 15.31 10.2081 15.014 10.0041 14.794C9.80406 14.57 9.53606 14.458 9.20006 14.458C8.86006 14.458 8.58806 14.568 8.38406 14.788C8.18406 15.008 8.08406 15.306 8.08406 15.682C8.08406 16.054 8.18406 16.352 8.38406 16.576C8.58806 16.796 8.86006 16.906 9.20006 16.906ZM11.7509 15.688C11.7509 15.272 11.8409 14.902 12.0209 14.578C12.2009 14.25 12.4509 13.996 12.7709 13.816C13.0949 13.632 13.4609 13.54 13.8689 13.54C14.3689 13.54 14.7969 13.672 15.1529 13.936C15.5089 14.2 15.7469 14.56 15.8669 15.016H14.7389C14.6549 14.84 14.5349 14.706 14.3789 14.614C14.2269 14.522 14.0529 14.476 13.8569 14.476C13.5409 14.476 13.2849 14.586 13.0889 14.806C12.8929 15.026 12.7949 15.32 12.7949 15.688C12.7949 16.056 12.8929 16.35 13.0889 16.57C13.2849 16.79 13.5409 16.9 13.8569 16.9C14.0529 16.9 14.2269 16.854 14.3789 16.762C14.5349 16.67 14.6549 16.536 14.7389 16.36H15.8669C15.7469 16.816 15.5089 17.176 15.1529 17.44C14.7969 17.7 14.3689 17.83 13.8689 17.83C13.4609 17.83 13.0949 17.74 12.7709 17.56C12.4509 17.376 12.2009 17.122 12.0209 16.798C11.8409 16.474 11.7509 16.104 11.7509 15.688Z" fill="white"/>
</svg>
