<svg width="258" height="214" viewBox="0 0 258 214" fill="none" xmlns="http://www.w3.org/2000/svg">
<path d="M152.22 213.999C210.395 213.999 257.555 167.022 257.555 109.074C257.555 51.1248 210.395 4.14795 152.22 4.14795C94.0448 4.14795 46.8845 51.1248 46.8845 109.074C46.8845 167.022 94.0448 213.999 152.22 213.999Z" fill="#F6F7FF"/>
<path d="M126.235 197.387C85.5148 195.776 44.7946 194.166 4.07438 192.555C1.27604 192.445 -0.209976 190.143 0.722584 187.409C19.2131 132.458 28.0707 76.2034 27.0051 20.4794C26.9397 17.7057 29.1276 15.5497 31.9259 15.6603C72.6461 17.2708 113.366 18.8812 154.086 20.4916C156.762 20.5624 159.276 23.083 159.299 25.7115C160.365 81.4358 151.508 137.69 133.017 192.641C132.172 195.235 128.9 197.527 126.235 197.387Z" fill="#B4C0FF"/>
<path d="M149.814 213.994C109.094 212.384 68.3738 210.773 27.6536 209.163C24.8553 209.052 23.3692 206.751 24.3018 204.016C42.7924 149.066 51.6499 92.8109 50.5844 37.0868C50.519 34.3132 52.7068 32.157 55.5051 32.2678C96.2253 33.8783 136.946 35.4886 177.666 37.0991C180.342 37.1698 182.856 39.6904 182.879 42.3189C183.944 98.0432 175.087 154.297 156.596 209.249C155.751 211.843 152.479 214.135 149.814 213.994Z" fill="#0049D4"/>
<path d="M142.6 203.408C101.848 203.408 61.0959 203.408 20.3436 203.408C17.543 203.408 15.9532 201.167 16.7595 198.399C32.7147 142.76 38.9869 86.1999 35.3706 30.5619C35.1782 27.793 37.265 25.5521 40.0655 25.5521C80.8178 25.5521 121.57 25.5521 162.322 25.5521C164.999 25.5171 167.626 27.9364 167.769 30.5619C171.385 86.2002 165.114 142.76 149.158 198.399C148.432 201.024 145.269 203.443 142.6 203.408Z" fill="white"/>
<path d="M132.826 54.8326C112.68 54.8326 92.5352 54.8326 72.39 54.8326C72.3546 52.6552 72.3304 51.567 72.2693 49.3921C92.4145 49.3921 112.56 49.3921 132.705 49.3921C132.766 51.567 132.79 52.6552 132.826 54.8326Z" fill="#3353F8" fill-opacity="0.25"/>
<path d="M154.469 71.1893C119.88 71.1893 85.2915 71.1893 50.7029 71.1893C50.7442 69.0056 50.7585 67.9142 50.7742 65.7324C85.3629 65.7324 119.951 65.7324 154.54 65.7324C154.524 67.9142 154.51 69.0056 154.469 71.1893Z" fill="#3353F8" fill-opacity="0.25"/>
<path d="M83.3428 142.311C70.2227 142.311 57.1026 142.311 43.9826 142.311C44.3541 140.123 44.5336 139.029 44.8799 136.84C58 136.84 71.1201 136.84 84.2401 136.84C83.8938 139.029 83.7144 140.123 83.3428 142.311Z" fill="#3353F8" fill-opacity="0.25"/>
<path d="M144.678 158.706C110.089 158.706 75.5003 158.706 40.9117 158.706C41.359 156.522 41.5763 155.43 41.9984 153.245C76.5871 153.245 111.176 153.245 145.764 153.245C145.342 155.43 145.125 156.522 144.678 158.706Z" fill="#3353F8" fill-opacity="0.25"/>
<path d="M141.122 174.717C106.533 174.717 71.9442 174.717 37.3557 174.717C37.8768 172.54 38.131 171.45 38.6271 169.271C73.2156 169.271 107.804 169.271 142.393 169.271C141.897 171.45 141.643 172.54 141.122 174.717Z" fill="#3353F8" fill-opacity="0.25"/>
<path d="M102.601 119.999C102.333 120.018 102.066 120.017 101.798 119.994C100.22 119.855 98.6746 118.911 97.3963 117.387C95.347 119.206 91.8389 120.868 89.2011 120.472C86.0788 120.003 84.4286 117.187 83.2468 114.849C82.6698 113.708 82.2563 112.192 81.923 110.649C77.925 113.96 73.8282 116.985 69.5355 119.881C69.0536 119.069 68.8119 118.664 68.3267 117.853C72.8769 114.776 77.3831 111.595 81.4661 107.88C80.9366 102.84 81.3364 97.0248 83.8978 92.1947C85.4163 89.3311 89.2495 83.1702 92.8227 84.1615C95.2065 84.8228 95.1043 88.6348 95.0001 90.377C94.9905 90.5411 94.9825 90.6876 94.9764 90.8076C94.6291 97.838 89.1271 103.7 84.1453 108.653C84.4536 110.531 84.9403 112.243 85.5624 113.654C86.69 116.209 88.2079 117.756 89.8647 118.01C91.6068 118.277 93.8389 117.174 96.0641 115.404C95.88 115.063 95.7083 114.704 95.5466 114.336C94.1705 111.2 93.7942 107.092 95.8059 103.875C97.5973 101.011 101.079 99.0454 104.34 98.6711C105.894 98.4927 107.202 98.8572 107.695 99.6407C109.233 102.086 106.788 106.22 105.115 108.77C103.544 111.166 101.516 113.668 99.3876 115.657C100.294 116.741 101.41 117.517 102.305 117.513C105.82 117.497 109.551 112.4 111.774 109.519C114.07 106.543 115.397 104.888 116.86 105.688C118.092 106.361 117.543 107.926 116.894 109.737C116.276 111.46 115.299 114.291 116.125 115.156C118.121 117.248 123.917 114.975 126.69 114.135C126.923 115.074 127.038 115.543 127.266 116.482C123.309 117.699 116.785 120.089 114.04 116.761C112.766 115.217 113.371 112.569 114.081 110.432C113.947 110.601 113.812 110.769 113.687 110.931C110.93 114.502 107.275 119.196 102.601 119.999ZM104.591 101.13C104.39 101.144 104.158 101.173 103.894 101.223C101.925 101.596 99.1761 102.966 97.8991 105.053C96.4653 107.398 96.8628 111 97.8662 113.152C97.9374 113.304 98.0075 113.466 98.082 113.619C99.323 112.413 100.576 111.044 101.552 109.688C103.364 107.169 105.451 104.38 105.663 101.244C105.618 101.208 105.294 101.079 104.591 101.13ZM91.8391 86.5145C89.2558 87.9797 87.4024 90.6478 86.1115 93.2078C84.146 97.1054 83.5714 101.525 83.8176 105.656C87.7466 101.484 92.2079 96.5628 92.4818 90.8521C92.4883 90.7178 92.4968 90.5541 92.5076 90.3712C92.6809 87.4147 92.2741 86.6412 91.9103 86.5154C91.8879 86.513 91.8643 86.5127 91.8391 86.5145Z" fill="#3353F8"/>
<path d="M121.569 101.355C121.561 102.317 120.766 103.154 119.797 103.223C118.828 103.293 118.052 102.57 118.061 101.608C118.069 100.647 118.857 99.8103 119.826 99.7405C120.794 99.6707 121.576 100.394 121.569 101.355Z" fill="#3353F8"/>
<path d="M65.5471 121.425C65.503 122.302 64.7469 123.064 63.8616 123.127C62.9763 123.191 62.2973 122.532 62.342 121.656C62.3865 120.78 63.1374 120.018 64.0222 119.954C64.9072 119.89 65.5913 120.549 65.5471 121.425Z" fill="#3353F8"/>
<path d="M42.9949 13.4617L59.6022 36.194C60.1643 36.9635 61.3857 36.5914 61.4195 35.6403L62.3727 8.81592L42.9949 13.4617Z" fill="#3A3168"/>
<path d="M55.699 19.2364C62.4925 17.2764 66.9786 12.1757 65.719 7.84363C64.4594 3.51158 57.931 1.58869 51.1375 3.54871C44.344 5.50874 39.8579 10.6095 41.1175 14.9415C42.3771 19.2736 48.9055 21.1965 55.699 19.2364Z" fill="#F6F7FF"/>
<mask id="mask0_233_5313" style="mask-type:luminance" maskUnits="userSpaceOnUse" x="46" y="4" width="212" height="210">
<path d="M152.22 213.999C210.395 213.999 257.555 167.022 257.555 109.074C257.555 51.1248 210.395 4.14795 152.22 4.14795C94.0446 4.14795 46.8843 51.1248 46.8843 109.074C46.8843 167.022 94.0446 213.999 152.22 213.999Z" fill="white"/>
</mask>
<g mask="url(#mask0_233_5313)">
<g opacity="0.3">
<path d="M253.517 126.699L250.481 126.206L224.815 122.051L223.437 125.614L181.125 115.363L181.125 115.362C180.956 114.251 180.684 112.554 180.308 110.518L180.308 110.518C180.045 109.091 179.731 107.498 179.366 105.821L178.93 103.647L178.872 103.64C176.764 94.6987 173.3 84.4925 168.474 84.5499C167.412 82.8289 165.828 81.2825 163.455 80.7178C162.82 80.5633 162.125 80.4803 161.371 80.4848C161.262 80.2231 161.153 79.9641 161.039 79.7103C159.848 77.02 158.443 74.8409 156.958 74.6542C155.776 74.5047 154.492 74.5231 153.269 74.6262C152.225 74.7113 151.231 74.8582 150.376 75.0107L150.373 75.0115L150.343 74.9247C150.327 74.8766 150.317 74.8531 150.317 74.8531L150.216 74.5728C149.681 73.0708 148.143 72.1663 146.565 72.4261C140.358 73.4477 125.479 76.3491 121.792 81.1848C117.099 87.3374 132.631 84.0721 136.094 82.7157C139.559 81.3584 141.393 81.6743 142.139 83.6334C142.522 84.641 144.288 92.1191 145.453 99.3115L145.718 101.018C146.632 107.161 146.979 112.688 145.476 113.234C142.097 114.46 136.173 111.951 134.46 106.386C134.106 105.236 133.745 103.765 133.356 102.165L133.355 102.159C132.999 100.696 132.619 99.1265 132.199 97.5957L132.197 97.5869H132.197C130.855 92.6977 129.099 88.2136 126.385 88.9223C123.6 89.6472 122.612 92.5335 122.672 96.3517L122.671 96.3515L122.672 96.3737C122.682 96.9392 122.715 97.5251 122.768 98.1274L122.77 98.1622L122.771 98.1626C122.939 100.051 123.308 102.099 123.805 104.185C125.539 111.458 125.468 121.394 141.507 131.835C150.607 137.76 181.742 154.66 206.975 168.171L205.097 173.027L218.158 180.55L219.968 181.593L260.003 204.66L287.631 132.225L253.517 126.699Z" fill="#F6F7FF"/>
</g>
</g>
<mask id="mask1_233_5313" style="mask-type:luminance" maskUnits="userSpaceOnUse" x="46" y="4" width="212" height="210">
<path d="M152.22 213.999C210.395 213.999 257.555 167.022 257.555 109.074C257.555 51.1248 210.395 4.14795 152.22 4.14795C94.0446 4.14795 46.8843 51.1248 46.8843 109.074C46.8843 167.022 94.0446 213.999 152.22 213.999Z" fill="white"/>
</mask>
<g mask="url(#mask1_233_5313)">
<path d="M264.493 119.268L248.242 171.882C233.202 165.745 160.724 136.076 145.513 128.188C128.517 119.377 127.603 109.482 125.156 102.415C122.71 95.3451 121.848 88.5821 126.21 86.9734C130.567 85.3629 133.722 98.1907 135.977 103.557C138.233 108.927 144.377 110.841 147.618 109.288C150.859 107.735 142.298 82.0367 141.362 80.1606C140.426 78.2844 138.57 78.1505 135.256 79.8421C131.945 81.5327 116.813 86.3098 120.872 79.7257C124.062 74.551 138.58 70.2 144.656 68.5727C146.2 68.159 147.821 68.9076 148.502 70.3497L148.631 70.6186C148.631 70.6186 148.642 70.6412 148.663 70.6874L148.702 70.7708L148.705 70.7697C149.54 70.5339 150.515 70.2898 151.545 70.1025C152.752 69.8795 154.028 69.7349 155.22 69.7674C156.715 69.8071 158.329 71.8373 159.781 74.3973C159.92 74.6388 160.054 74.8856 160.189 75.1354C160.938 75.0567 161.638 75.071 162.286 75.1621C164.703 75.4907 166.432 76.8737 167.66 78.4818C175.109 77.6558 181.744 101.782 183.304 107.898C183.304 107.898 183.304 107.898 183.305 107.901L264.493 119.268Z" fill="#FDC8AA"/>
<path d="M164.433 85.0205C164.459 84.9295 164.459 79.7567 162.285 75.1625C161.638 75.0714 160.938 75.057 160.188 75.1357C160.188 75.1357 163.318 81.9236 164.433 85.0205Z" fill="#EFA37D"/>
<path d="M155.784 85.7533C153.894 81.4611 149.337 72.0748 148.705 70.7698C149.54 70.534 150.515 70.2898 151.545 70.1025C154.022 75.8854 155.784 85.7533 155.784 85.7533Z" fill="#EFA37D"/>
<path d="M146.649 97.1092L182.011 103.157L179.958 96.4552L146.213 95.4282L146.649 97.1092Z" fill="#EFA37D"/>
<path d="M172.026 106.32L257.818 140.878L264.667 119.292L172.026 106.32Z" fill="#EFA37D"/>
<path d="M290.961 114.2L270.651 188.999L228.523 169.983L226.618 169.122L225.769 168.74L212.877 162.922L227.443 110.256L253.395 111.864L254.449 111.929L256.465 112.055L290.961 114.2Z" fill="#113D92"/>
<path d="M216.853 79.7251L215.818 87.3211L214.427 97.5072L118.299 94.5815L112.451 89.0133L120.477 86.0034L216.853 79.7251Z" fill="#3353F8"/>
<path d="M216.853 82.2227L215.818 89.8186L119.934 92.2985L120.477 88.501L216.853 82.2227Z" fill="#3A3168"/>
<path d="M220.234 89.1205C220.039 93.9421 216.995 97.6088 214.429 97.5059C211.863 97.4031 210.747 93.5695 210.942 88.748C211.137 83.9264 214.289 79.6211 216.855 79.724C219.421 79.8268 220.429 84.2989 220.234 89.1205Z" fill="#3A3168"/>
<path d="M123.528 96.5231L134.46 99.4652L132.853 95.0232L123.251 94.731L123.528 96.5231Z" fill="#EFA37D"/>
<path d="M254.449 111.929C250.971 133.871 240.665 153.548 225.769 168.74L212.877 162.922L227.443 110.256L253.395 111.864L254.449 111.929Z" fill="#0049D4"/>
<path d="M225.304 158.889C225.817 157.254 224.903 155.514 223.262 155.003C221.621 154.492 219.875 155.402 219.361 157.037C218.848 158.671 219.762 160.411 221.403 160.923C223.044 161.434 224.79 160.523 225.304 158.889Z" fill="white"/>
</g>
</svg>
