<svg width="24" height="24" viewBox="0 0 24 24" fill="none" xmlns="http://www.w3.org/2000/svg">
<path d="M20.0304 6.21968L16.2804 2.46968C16.1397 2.32902 15.9489 2.25 15.75 2.25H8.25C7.85231 2.25045 7.47105 2.40864 7.18984 2.68984C6.90864 2.97105 6.75045 3.35231 6.75 3.75V5.25H5.25C4.85231 5.25045 4.47105 5.40864 4.18984 5.68984C3.90864 5.97105 3.75045 6.35231 3.75 6.75V20.25C3.75045 20.6477 3.90864 21.029 4.18984 21.3102C4.47105 21.5914 4.85231 21.7495 5.25 21.75H15.75C16.1477 21.7495 16.529 21.5914 16.8102 21.3102C17.0914 21.029 17.2495 20.6477 17.25 20.25V18.75H18.75C19.1477 18.7495 19.529 18.5914 19.8102 18.3102C20.0914 18.029 20.2495 17.6477 20.25 17.25V6.75C20.25 6.5511 20.171 6.36034 20.0304 6.21968ZM12.75 18H8.25C8.05109 18 7.86032 17.921 7.71967 17.7803C7.57902 17.6397 7.5 17.4489 7.5 17.25C7.5 17.0511 7.57902 16.8603 7.71967 16.7197C7.86032 16.579 8.05109 16.5 8.25 16.5H12.75C12.9489 16.5 13.1397 16.579 13.2803 16.7197C13.421 16.8603 13.5 17.0511 13.5 17.25C13.5 17.4489 13.421 17.6397 13.2803 17.7803C13.1397 17.921 12.9489 18 12.75 18ZM12.75 15H8.25C8.05109 15 7.86032 14.921 7.71967 14.7803C7.57902 14.6397 7.5 14.4489 7.5 14.25C7.5 14.0511 7.57902 13.8603 7.71967 13.7197C7.86032 13.579 8.05109 13.5 8.25 13.5H12.75C12.9489 13.5 13.1397 13.579 13.2803 13.7197C13.421 13.8603 13.5 14.0511 13.5 14.25C13.5 14.4489 13.421 14.6397 13.2803 14.7803C13.1397 14.921 12.9489 15 12.75 15ZM18.75 17.25H17.25V9.75C17.25 9.5511 17.171 9.36034 17.0304 9.21968L13.2804 5.46968C13.1397 5.32902 12.9489 5.25 12.75 5.25H8.25V3.75H15.4394L18.75 7.06069V17.25Z" fill="#6A27D9"/>
</svg>
