<svg width="24" height="24" viewBox="0 0 24 24" fill="none" xmlns="http://www.w3.org/2000/svg">
<path fill-rule="evenodd" clip-rule="evenodd" d="M3 5.25C3 5.05109 3.07902 4.86032 3.21967 4.71967C3.36032 4.57902 3.55109 4.5 3.75 4.5H9C9.09856 4.49983 9.19618 4.51908 9.2873 4.55665C9.37841 4.59423 9.46122 4.6494 9.531 4.719L11.5605 6.75H20.25C20.4489 6.75 20.6397 6.82902 20.7803 6.96967C20.921 7.11032 21 7.30109 21 7.5V18.75C21 18.9489 20.921 19.1397 20.7803 19.2803C20.6397 19.421 20.4489 19.5 20.25 19.5H3.75C3.55109 19.5 3.36032 19.421 3.21967 19.2803C3.07902 19.1397 3 18.9489 3 18.75V5.25ZM4.5 6V9.75H19.5V8.25H11.25C11.1514 8.25018 11.0538 8.23093 10.9627 8.19335C10.8716 8.15577 10.7888 8.1006 10.719 8.031L8.6895 6H4.5Z" fill="black"/>
</svg>
