<svg width="20" height="20" viewBox="0 0 20 20" fill="none" xmlns="http://www.w3.org/2000/svg">
<path d="M1.87097 9.63158C1.38995 9.63158 1 10.0204 1 10.5C1 10.9796 1.38995 11.3684 1.87097 11.3684V9.63158ZM18.129 11.3684C18.61 11.3684 19 10.9796 19 10.5C19 10.0204 18.61 9.63158 18.129 9.63158V11.3684ZM1.87097 5C1.38995 5 1 5.38881 1 5.86842C1 6.34803 1.38995 6.73684 1.87097 6.73684V5ZM12.7093 6.73684C13.1903 6.73684 13.5803 6.34803 13.5803 5.86842C13.5803 5.38881 13.1903 5 12.7093 5V6.73684ZM1.87097 14.2632C1.38995 14.2632 1 14.652 1 15.1316C1 15.6112 1.38995 16 1.87097 16V14.2632ZM12.7093 16C13.1903 16 13.5803 15.6112 13.5803 15.1316C13.5803 14.652 13.1903 14.2632 12.7093 14.2632V16ZM1.87097 11.3684H18.129V9.63158H1.87097V11.3684ZM1.87097 6.73684H12.7093V5H1.87097V6.73684ZM1.87097 16H12.7093V14.2632H1.87097V16Z" fill="black"/>
</svg>
