<svg width="18" height="19" viewBox="0 0 18 19" fill="none" xmlns="http://www.w3.org/2000/svg">
<path d="M3 13.4497V5.94975M3.66795 15.395L5.16795 16.395C6.16478 17.0596 7.5 16.345 7.5 15.147V4.25252C7.5 3.05448 6.16478 2.33989 5.16795 3.00445L3.66795 4.00445C3.25065 4.28265 3 4.75099 3 5.25252V14.147C3 14.6485 3.25065 15.1168 3.66795 15.395Z" stroke="#EC4E2C" strokeWidth="1.5" strokeLinecap="round"/>
<path opacity="0.4" d="M13.5 10.9994L14.3636 10.1358C14.7151 9.78436 14.7151 9.21451 14.3636 8.86304L13.5 7.99944M14.25 9.49947L9.75 9.49947M12 13.4492C12 14.2776 11.3284 14.9492 10.5 14.9492H7.5M12 5.94922C12 5.12079 11.3284 4.44922 10.5 4.44922H7.5" stroke="#EC4E2C" strokeWidth="1.5" strokeLinecap="round"/>
</svg>
