<svg width="24" height="24" viewBox="0 0 24 24" fill="none" xmlns="http://www.w3.org/2000/svg">
<path fill-rule="evenodd" clip-rule="evenodd" d="M5.81677 0H14.4L21.6 7.2V20.8755C21.6 22.6027 20.1053 24 18.2642 24H5.74218C3.89468 24 2.39999 22.6027 2.39999 20.8755V3.1244C2.39996 1.39727 3.96923 0 5.81677 0Z" fill="#D92D20"/>
<path d="M14.4154 4.896V0L21.6 7.2H16.8103C14.6549 7.2 14.3156 5.664 14.4154 4.896Z" fill="white" fill-opacity="0.3"/>
<path d="M7.04944 19.2V15.2727H8.59887C8.89674 15.2727 9.1505 15.3296 9.36016 15.4433C9.56982 15.5558 9.72962 15.7125 9.83956 15.9132C9.95078 16.1126 10.0064 16.3427 10.0064 16.6035C10.0064 16.8643 9.95015 17.0944 9.83765 17.2938C9.72515 17.4933 9.56215 17.6486 9.34865 17.7598C9.13644 17.871 8.87948 17.9267 8.57777 17.9267H7.5902V17.2612H8.44354C8.60334 17.2612 8.73502 17.2338 8.83857 17.1788C8.9434 17.1225 9.02138 17.0452 9.07252 16.9468C9.12493 16.847 9.15114 16.7326 9.15114 16.6035C9.15114 16.4731 9.12493 16.3593 9.07252 16.2622C9.02138 16.1637 8.9434 16.0877 8.83857 16.034C8.73374 15.979 8.60078 15.9515 8.43971 15.9515H7.87976V19.2H7.04944ZM11.9379 19.2H10.5457V15.2727H11.9494C12.3444 15.2727 12.6845 15.3513 12.9696 15.5085C13.2547 15.6645 13.4739 15.8889 13.6273 16.1816C13.782 16.4744 13.8594 16.8247 13.8594 17.2325C13.8594 17.6416 13.782 17.9931 13.6273 18.2872C13.4739 18.5812 13.2534 18.8068 12.9658 18.9641C12.6794 19.1213 12.3368 19.2 11.9379 19.2ZM11.3761 18.4885H11.9034C12.1488 18.4885 12.3553 18.4451 12.5228 18.3581C12.6915 18.2699 12.8181 18.1338 12.9025 17.9497C12.9881 17.7643 13.031 17.5252 13.031 17.2325C13.031 16.9423 12.9881 16.7051 12.9025 16.521C12.8181 16.337 12.6922 16.2014 12.5247 16.1145C12.3572 16.0276 12.1508 15.9841 11.9053 15.9841H11.3761V18.4885ZM14.4744 19.2V15.2727H17.0747V15.9573H15.3048V16.8931H16.9021V17.5776H15.3048V19.2H14.4744Z" fill="white"/>
</svg>
