<svg width="25" height="24" viewBox="0 0 25 24" fill="none" xmlns="http://www.w3.org/2000/svg">
<path d="M5.90039 0.450195H16.1279L21.0498 4.97168V21.5996C21.0498 22.6766 20.1766 23.5498 19.0996 23.5498H5.90039C4.82344 23.5498 3.9502 22.6766 3.9502 21.5996V2.40039C3.9502 1.32344 4.82344 0.450195 5.90039 0.450195Z" stroke="#D0D5DD" strokeWidth="0.9"/>
<mask id="path-2-inside-1_115_9153" fill="white">
<path d="M15.5 0.599976H20.6V5.69998H16.1C15.7686 5.69998 15.5 5.43135 15.5 5.09998V0.599976Z"/>
</mask>
<path d="M15.5 0.599976H20.6H15.5ZM20.6 6.29998H16.1C15.4373 6.29998 14.9 5.76272 14.9 5.09998H16.1H20.6V6.29998ZM16.1 6.29998C15.4373 6.29998 14.9 5.76272 14.9 5.09998V0.599976H16.1V5.09998V6.29998ZM20.6 0.599976V5.69998V0.599976Z" fill="#D0D5DD" mask="url(#path-2-inside-1_115_9153)"/>
<rect x="1.09998" y="12" width="14.4" height="7.6" rx="1.2" fill="#F04438"/>
<path d="M6.18954 14.944C6.18954 15.188 6.13354 15.412 6.02154 15.616C5.90954 15.816 5.73754 15.978 5.50554 16.102C5.27354 16.226 4.98554 16.288 4.64154 16.288H4.00554V17.8H2.97954V13.588H4.64154C4.97754 13.588 5.26154 13.646 5.49354 13.762C5.72554 13.878 5.89954 14.038 6.01554 14.242C6.13154 14.446 6.18954 14.68 6.18954 14.944ZM4.56354 15.472C4.75954 15.472 4.90554 15.426 5.00154 15.334C5.09754 15.242 5.14554 15.112 5.14554 14.944C5.14554 14.776 5.09754 14.646 5.00154 14.554C4.90554 14.462 4.75954 14.416 4.56354 14.416H4.00554V15.472H4.56354ZM8.30168 13.588C8.74568 13.588 9.13368 13.676 9.46568 13.852C9.79768 14.028 10.0537 14.276 10.2337 14.596C10.4177 14.912 10.5097 15.278 10.5097 15.694C10.5097 16.106 10.4177 16.472 10.2337 16.792C10.0537 17.112 9.79568 17.36 9.45968 17.536C9.12768 17.712 8.74168 17.8 8.30168 17.8H6.72368V13.588H8.30168ZM8.23568 16.912C8.62368 16.912 8.92568 16.806 9.14168 16.594C9.35768 16.382 9.46568 16.082 9.46568 15.694C9.46568 15.306 9.35768 15.004 9.14168 14.788C8.92568 14.572 8.62368 14.464 8.23568 14.464H7.74968V16.912H8.23568ZM13.8251 13.588V14.41H12.1091V15.298H13.3931V16.096H12.1091V17.8H11.0831V13.588H13.8251Z" fill="white"/>
</svg>
