<svg width="25" height="25" viewBox="0 0 25 25" fill="none" xmlns="http://www.w3.org/2000/svg">
<path d="M7.81054 17.9966L9.40554 19.5916C9.50638 19.6924 9.63471 19.7428 9.79054 19.7428C9.94638 19.7428 10.0747 19.6924 10.1755 19.5916C10.2764 19.4907 10.3268 19.3624 10.3268 19.2066C10.3268 19.0507 10.2764 18.9224 10.1755 18.8216L8.58054 17.2266L10.1755 15.6316C10.2764 15.5307 10.3268 15.4024 10.3268 15.2466C10.3268 15.0907 10.2764 14.9624 10.1755 14.8616C10.0747 14.7607 9.94638 14.7103 9.79054 14.7103C9.63471 14.7103 9.50638 14.7607 9.40554 14.8616L7.81054 16.4566L6.21555 14.8616C6.11471 14.7607 5.98638 14.7103 5.83055 14.7103C5.67471 14.7103 5.54638 14.7607 5.44555 14.8616C5.34471 14.9624 5.2943 15.0907 5.2943 15.2466C5.2943 15.4024 5.34471 15.5307 5.44555 15.6316L7.04054 17.2266L5.44555 18.8216C5.34471 18.9224 5.2943 19.0507 5.2943 19.2066C5.2943 19.3624 5.34471 19.4907 5.44555 19.5916C5.54638 19.6924 5.67471 19.7428 5.83055 19.7428C5.98638 19.7428 6.11471 19.6924 6.21555 19.5916L7.81054 17.9966ZM7.81054 22.7266C7.04971 22.7266 6.33471 22.5821 5.66555 22.2932C4.99638 22.0042 4.4143 21.6124 3.9193 21.1178C3.4243 20.6232 3.03251 20.0411 2.74395 19.3716C2.45538 18.702 2.31091 17.987 2.31055 17.2266C2.31018 16.4661 2.45465 15.7511 2.74395 15.0816C3.03325 14.412 3.42503 13.8299 3.9193 13.3353C4.41356 12.8407 4.99565 12.4489 5.66555 12.16C6.33545 11.871 7.05044 11.7266 7.81054 11.7266C8.57064 11.7266 9.28564 11.871 9.95554 12.16C10.6254 12.4489 11.2075 12.8407 11.7018 13.3353C12.1961 13.8299 12.588 14.412 12.8777 15.0816C13.1674 15.7511 13.3116 16.4661 13.3105 17.2266C13.3094 17.987 13.165 18.702 12.8771 19.3716C12.5893 20.0411 12.1975 20.6232 11.7018 21.1178C11.2061 21.6124 10.624 22.0044 9.95554 22.2937C9.28711 22.583 8.57211 22.7273 7.81054 22.7266Z" fill="#D11717"/>
<path d="M19.0015 6.5954C18.6449 6.5954 18.3558 6.30633 18.3558 5.94977V1H9.10191C8.03392 1 7.16504 1.86888 7.16504 2.93687V10.1545C7.37775 10.1352 7.593 10.1248 7.81066 10.1248C10.0113 10.1248 11.9813 11.1309 13.2849 12.7073H20.2927C20.6493 12.7073 20.9383 12.9964 20.9383 13.3529C20.9383 13.7095 20.6493 13.9985 20.2927 13.9985H14.1355C14.548 14.8034 14.8018 15.6802 14.8829 16.581H20.2927C20.6493 16.581 20.9383 16.8701 20.9383 17.2267C20.9383 17.5832 20.6493 17.8723 20.2927 17.8723H14.8829C14.6898 20.0045 13.5505 21.8676 11.8892 23.0373H22.0144C23.0823 23.0373 23.9512 22.1684 23.9512 21.1004V6.5954H19.0015ZM20.2927 10.1248H10.8236C10.467 10.1248 10.1779 9.83573 10.1779 9.47918C10.1779 9.12262 10.467 8.83356 10.8236 8.83356H20.2927C20.6493 8.83356 20.9383 9.12262 20.9383 9.47918C20.9383 9.83573 20.6493 10.1248 20.2927 10.1248Z" fill="#D11717"/>
<path d="M19.647 1.37793V5.30405H23.5728L19.647 1.37793Z" fill="#D11717"/>
</svg>
