<svg width="50" height="50" viewBox="0 0 50 50" fill="none" xmlns="http://www.w3.org/2000/svg">
<path fill-rule="evenodd" clip-rule="evenodd" d="M6.99565 26.6197C5.72442 28.5809 6.24908 31.308 7.2984 36.762C8.05375 40.6882 8.43144 42.6511 9.74006 43.9539C10.0796 44.292 10.4595 44.5916 10.8721 44.8468C12.4624 45.8305 14.5737 45.8305 18.7964 45.8305H33.2869C37.5096 45.8305 39.621 45.8305 41.2113 44.8468C41.624 44.5916 42.0038 44.292 42.3433 43.9539C43.6519 42.6511 44.0296 40.6882 44.785 36.762C45.8342 31.308 46.359 28.5809 45.0877 26.6197C44.7633 26.1191 44.3631 25.6661 43.9002 25.2749C42.0856 23.7422 39.1527 23.7422 33.2869 23.7422H18.7964C12.9306 23.7422 9.99767 23.7422 8.18317 25.2749C7.72013 25.6661 7.32006 26.1191 6.99565 26.6197ZM20.1983 35.7903C20.1983 34.9586 20.9117 34.2843 21.7919 34.2843H30.2913C31.1713 34.2843 31.8848 34.9586 31.8848 35.7903C31.8848 36.622 31.1713 37.2964 30.2913 37.2964H21.7919C20.9117 37.2964 20.1983 36.622 20.1983 35.7903Z" fill="#BAC5FF"/>
<path opacity="0.5" d="M7.44927 26.0148C7.67117 25.7523 7.91623 25.5073 8.18202 25.2827C9.99652 23.75 12.9294 23.75 18.7953 23.75H33.2857C39.1516 23.75 42.0845 23.75 43.8991 25.2827C44.1655 25.5079 44.4112 25.7535 44.6337 26.0171V20.3298C44.6337 18.4362 44.6336 16.8652 44.4559 15.6126C44.2684 14.2907 43.8595 13.1189 42.882 12.1561C42.7226 11.9991 42.5543 11.85 42.378 11.7095C41.3118 10.8599 40.0336 10.5124 38.5868 10.3512C37.1928 10.1959 35.4368 10.196 33.2841 10.196H32.5493C30.5032 10.196 29.7697 10.1841 29.1053 10.0163C28.7149 9.91775 28.3405 9.7801 27.9889 9.60683C27.3968 9.31494 26.8807 8.87525 25.4316 7.59129L24.4439 6.71621C24.0291 6.34873 23.7462 6.09791 23.4428 5.8751C22.1414 4.91935 20.5568 4.34129 18.8977 4.20383C18.5114 4.17183 18.1172 4.17185 17.5271 4.17191L17.2846 4.17189C15.9498 4.17166 15.069 4.17152 14.3041 4.29937C10.9607 4.85827 8.25702 7.19569 7.59848 10.288C7.44867 10.9915 7.4489 11.7976 7.44925 12.9605L7.44927 26.0148Z" fill="#BAC5FF"/>
</svg>
